<svg xmlns="http://www.w3.org/2000/svg" viewBox="0 0 120.28 101.46">
    <defs>
        <style>.cls-1{fill:#ffb631;stroke:#ffe9c6;stroke-miterlimit:10;stroke-width:0.75px;}</style>
    </defs>
    <g id="Слой_2" data-name="Слой 2">
        <g id="Layer_1" data-name="Layer 1">
            <path class="cls-1"
                  d="M119.3,48.31c-2,9.15-7.89,11.09-12.69,11.45s-10-2.09-12.5-2.91-6-1.27-7.25,2.82S89.39,76,90.66,81.21c.75,3.12,1.82,8,2.92,12.63C84.86,96,74.68,98.51,71.8,99.28c-4.8,1.27-9.33,3.08-13,.45s-2.26-7.18-1.35-10.08,5-6.55,4.35-14.46S49.33,64.55,41.35,66s-13,7.63-13.13,13.73,3.25,8.18,4,13.18-1.73,6.72-6,7.54-12.9-1.34-17.12-3C7,96.67,3.6,95.32.39,93.84c0-6.45,0-47.56,0-73.06A20.4,20.4,0,0,1,20.79.38c25.83,0,67.61,0,72.79,0-2.25,6.36-5.92,16.7-6.91,23.21-1.33,8.73,1.26,10,6.09,9.31,5.36-.82,5.68-6.19,14.56-5.74C117.69,27.72,121.52,38,119.3,48.31Z"/>
        </g>
    </g>
</svg>
