<svg xmlns="http://www.w3.org/2000/svg" xmlns:xlink="http://www.w3.org/1999/xlink"
     viewBox="0 0 477.46 320.41">
    <defs>
        <style>
            .cls-1{fill:none;opacity:0.49;}.cls-2{clip-path:url(#clip-path-1);}
        </style>
        <clipPath id="clip-path-1" >
            <path class="cls-1"
                  d="M201.13,81.41c-3.33,15.54-13.35,18.83-21.47,19.46s-16.84-3.57-21.13-5-10.13-2.15-12.28,4.79,4.29,27.79,6.44,36.59c1.27,5.29,3.08,13.64,4.94,21.43-14.75,3.67-32,7.94-36.83,9.25-8.12,2.16-15.78,5.23-22.08.77s-3.82-12.2-2.29-17.13,8.42-11.12,7.36-24.56S82.79,109,69.3,111.47s-22.07,13-22.21,23.32,5.5,13.89,6.74,22.38S50.89,168.59,43.71,170s-21.82-2.27-28.95-5.05c-3.52-1.38-9.31-3.69-14.74-6.21C0,147.79,0,78,0,34.66A34.59,34.59,0,0,1,34.53,0h123.1c-3.82,10.81-10,28.37-11.69,39.43-2.25,14.82,2.13,17.06,10.3,15.81,9.06-1.39,9.6-10.51,24.62-9.74C198.4,46.44,204.87,63.93,201.13,81.41Z"/>
        </clipPath>
    </defs>
    <g>
        <g>
            <g class="cls-2">
                <image />
            </g>
        </g>
    </g>
</svg>
