<svg xmlns="http://www.w3.org/2000/svg" version="1.1" viewBox="0 0 477.46 320.41">
    <defs>
        <style>.puzzle-stroke{fill:none;stroke:#175733;stroke-miterlimit:10;stroke-width:2px;}.cls-3{clip-path:url(#clip-path-2);}</style>
        <clipPath id="clip-path-2">
            <path class="cls-1"
                  d="M180.23,128.66c-1.71,6.36-5.51,17.74-10.32,30.08-8-3.09-14.93-5.57-18-6.46-11.94-3.5-34.29-6.75-37.35-.58s1.39,16.67,3.85,23.16,2.59,21-12.73,28.07-36,1.73-39.37-11.85,1-17.92,3.81-23.48,5.2-10.8,3.37-15.13-9-7.26-30.19-2c-8.91,2.2-20.4,5.16-31,8.27-1.86-7.8-3.67-16.15-4.94-21.44C5.19,128.5-1.25,107.66.9,100.72s8-6.18,12.28-4.8,13,5.57,21.13,5S52.45,97,55.78,81.41c3.74-17.48-2.73-35-20.27-35.91-15-.77-15.56,8.35-24.62,9.74-8.17,1.25-12.55-1-10.3-15.81C2.26,28.37,8.46,10.81,12.28,0H169.91c1.92,8.7,4.09,17.5,6.31,28.89,1.76,8.88,3.22,25-6.13,28.09s-15.21-3.35-21.9-4.14c-12.22-1.48-20.41,4.76-22.55,19.74s.93,32.57,13,36c13.14,3.7,19.92-2.45,27-4.93,7.38-2.58,13.93-1,15.93,4.64C183.94,114.9,182.22,121.39,180.23,128.66Z"/>
        </clipPath>
    </defs>
    <g>
        <g>
            <g class="cls-3">

                <image />
            </g>
            <path class="puzzle-stroke"
                  d="M180.23,128.66c-1.71,6.36-5.51,17.74-10.32,30.08-8-3.09-14.93-5.57-18-6.46-11.94-3.5-34.29-6.75-37.35-.58s1.39,16.67,3.85,23.16,2.59,21-12.73,28.07-36,1.73-39.37-11.85,1-17.92,3.81-23.48,5.2-10.8,3.37-15.13-9-7.26-30.19-2c-8.91,2.2-20.4,5.16-31,8.27-1.86-7.8-3.67-16.15-4.94-21.44C5.19,128.5-1.25,107.66.9,100.72s8-6.18,12.28-4.8,13,5.57,21.13,5S52.45,97,55.78,81.41c3.74-17.48-2.73-35-20.27-35.91-15-.77-15.56,8.35-24.62,9.74-8.17,1.25-12.55-1-10.3-15.81C2.26,28.37,8.46,10.81,12.28,0H169.91c1.92,8.7,4.09,17.5,6.31,28.89,1.76,8.88,3.22,25-6.13,28.09s-15.21-3.35-21.9-4.14c-12.22-1.48-20.41,4.76-22.55,19.74s.93,32.57,13,36c13.14,3.7,19.92-2.45,27-4.93,7.38-2.58,13.93-1,15.93,4.64C183.94,114.9,182.22,121.39,180.23,128.66Z"/>
            />
        </g>
    </g>
</svg>
