<svg xmlns="http://www.w3.org/2000/svg" xmlns:xlink="http://www.w3.org/1999/xlink" viewBox="0 0 477.46 321.05">
    <defs>
        <style>
            .cls-1{fill:none;stroke:#fff;stroke-miterlimit:10;stroke-width:1.18px;opacity:0.5;}.cls-5{clip-path:url(#clip-path-4);}
        </style>
        <clipPath id="clip-path-4">
            <path class="cls-1"
                  d="M168.56,177.16c-1.74,6.36-5.52,17.73-10.35,30.07H35.12A34.59,34.59,0,0,1,.6,172.57c0-42.75,0-111.37,0-124.08C6,51,11.83,53.31,15.34,54.69c7.13,2.78,21.74,6.44,29,5.06s11.35-4.32,10.12-12.82-6.91-12-6.74-22.39S56.41,3.7,69.88,1.23s33.4,2.15,34.49,15.58S98.56,36.44,97,41.37s-4,12.65,2.29,17.14,14,1.39,22.07-.78c4.86-1.31,22.08-5.57,36.83-9.24,1.9,8.71,4.09,17.5,6.33,28.91,1.73,8.89,3.21,25-6.14,28.08s-15.21-3.36-21.91-4.15c-12.22-1.46-20.39,4.78-22.53,19.74s.93,32.57,13,36c13.15,3.69,19.92-2.46,27-4.93,7.37-2.59,13.94-1,15.94,4.63C172.26,163.39,170.53,169.87,168.56,177.16Z"/>
        </clipPath>
    </defs>
    <g>
        <g>
            <g class="cls-5">
                <image />
            </g>
        </g>
    </g>
</svg>
