<svg xmlns="http://www.w3.org/2000/svg" xmlns:xlink="http://www.w3.org/1999/xlink" viewBox="0 0 477.46 320.41">
    <defs>
        <style>
            .cls-1{fill:none;stroke:#fff;stroke-miterlimit:10;stroke-width:1.18px;opacity:0.5;}.cls-2{clip-path:url(#clip-path);}
        </style>
        <clipPath id="clip-path" transform="translate(114.63 148.97)">
            <path class="cls-1"
                  d="M246.58,93.09c-3.31,15.54-13.33,18.83-21.46,19.45S208.27,109,204,107.62s-10.12-2.17-12.26,4.77,4.28,27.8,6.42,36.59c1.32,5.28,3.09,13.65,5,21.44H45.47c4.83-12.34,8.61-23.71,10.34-30.06,2-7.3,3.71-13.78,1.35-20.42-2-5.66-8.58-7.23-15.95-4.64-7,2.47-13.82,8.62-27,4.94-12.1-3.41-15.17-21-13-36s10.31-21.2,22.53-19.74c6.7.79,12.56,7.24,21.91,4.16s7.87-19.2,6.14-28.09c-2.25-11.41-4.43-20.19-6.33-28.91,10.58-3.11,22.08-6.06,31-8.27,21.16-5.26,28.35-2.33,30.19,2S106,15,103.27,20.54,96.08,30.44,99.46,44s24.05,19,39.37,11.86S154,34.27,151.56,27.8s-6.92-17-3.85-23.16,25.41-2.91,37.35.59c3.11.89,10,3.36,18,6.45-3.82,10.8-10,28.36-11.69,39.42-2.27,14.83,2.12,17.09,10.3,15.82,9.06-1.38,9.59-10.51,24.6-9.74C243.86,58.12,250.34,75.6,246.58,93.09Z"/>
        </clipPath>
    </defs>
    <g id="Слой_2" data-name="Слой 2">
        <g id="Layer_1" data-name="Layer 1">
            <g class="cls-2">
                <image height="1322" transform="scale(0.24)"/>
            </g>
        </g>
    </g>
</svg>
