<svg id="Слой_1" data-name="Слой 1" xmlns="http://www.w3.org/2000/svg" viewBox="0 0 170.4481 206.6385"><defs><style>.cls-1{fill:none;opacity:0.5;}</style></defs><path class="cls-1" d="M167.965,176.5741c-1.7314,6.353-5.5164,17.7231-10.341,30.0644-7.15-.0041-78.9025-.0025-123.0918-.0012A34.5892,34.5892,0,0,1,.0075,171.981C0,129.228-.0075,60.6145.0142,47.8981c5.4314,2.5153,11.2218,4.8225,14.7391,6.2055,7.13,2.7768,21.74,6.4352,28.95,5.0522,7.1811-1.406,11.3489-4.3148,10.1157-12.82-1.2336-8.4915-6.9118-12.0344-6.74-22.3817C47.2261,13.6019,55.8177,3.1086,69.2885.6359c13.498-2.47,33.402,2.1584,34.4933,15.5863,1.0609,13.4463-5.8161,19.6322-7.3568,24.5627-1.5268,4.9274-3.9648,12.6438,2.2929,17.132,6.2913,4.4609,13.955,1.3892,22.073-.7735,4.8565-1.3086,22.0788-5.5748,36.8331-9.2453,1.8978,8.7149,4.0816,17.5,6.3244,28.9111,1.7313,8.8868,3.2129,24.9745-6.1369,28.0841-9.3482,3.0826-15.2095-3.3664-21.9108-4.1508-12.2162-1.4667-20.3915,4.774-22.5317,19.7387-2.1337,14.9951.9339,32.5711,13.0319,35.9726,13.1453,3.6827,19.9179-2.4637,26.9642-4.938,7.372-2.5885,13.9462-1.0138,15.9422,4.6386C171.67,162.7994,169.9353,169.277,167.965,176.5741Z"/></svg>