<svg id="Слой_1" data-name="Слой 1" xmlns="http://www.w3.org/2000/svg" viewBox="0 0 247.0198 169.8306"><defs><style>.cls-1{fill:none;opacity:0.5;}</style></defs><path class="cls-1" d="M245.9893,92.4994c-3.3142,15.5377-13.3328,18.8344-21.463,19.4529-8.1118.6216-16.8454-3.5473-21.1329-4.9259-4.3209-1.3982-10.12-2.1658-12.2663,4.774-2.1581,6.9382,4.2831,27.803,6.423,36.5849,1.3151,5.2848,3.0858,13.6514,4.9609,21.4453-16.3067-.0059-145.0667-.0121-157.6293,0,4.8246-12.3413,8.61-23.7114,10.3409-30.0644,1.97-7.2971,3.7048-13.7747,1.3424-20.42-1.996-5.6524-8.57-7.2271-15.9423-4.6386-7.0462,2.4743-13.8188,8.6207-26.9641,4.938C1.5605,116.2444-1.507,98.6685.6267,83.6733c2.14-14.9647,10.3155-21.2054,22.5316-19.7387,6.7013.7845,12.5627,7.2334,21.9109,4.1508,9.35-3.11,7.8682-19.1973,6.1369-28.0841C48.9633,28.59,46.78,19.8051,44.8817,11.09,55.4632,7.9834,66.9559,5.0272,75.864,2.8191c21.157-5.2558,28.3412-2.33,30.1907,2.0046,1.8237,4.33-.6159,9.5538-3.3781,15.1259-2.7514,5.56-7.1839,9.8959-3.8046,23.4788,3.37,13.5879,24.0433,18.97,39.3651,11.86,15.3276-7.1008,15.1838-21.6035,12.7306-28.0767-2.4579-6.4884-6.9133-16.9739-3.8439-23.1614,3.0616-6.1631,25.4023-2.9122,37.3476.5865,3.113.8893,10.0307,3.362,18.04,6.4536-3.8169,10.7986-9.9975,28.3624-11.6957,39.424-2.2669,14.828,2.1219,17.085,10.305,15.82,9.059-1.3814,9.59-10.5159,24.5956-9.7437C243.2742,57.5256,249.7486,75.0115,245.9893,92.4994Z"/></svg>