<svg id="Слой_1" data-name="Слой 1" xmlns="http://www.w3.org/2000/svg" viewBox="0 0 202.1526 171.0389"><defs><style>.cls-1{fill:none;opacity:0.49;}</style></defs><path class="cls-1" d="M201.13,81.41c-3.3279,15.5437-13.3511,18.8329-21.472,19.456-8.1329.6216-16.8411-3.5628-21.13-4.9458-4.3085-1.3861-10.13-2.1537-12.2735,4.7936-2.1553,6.9382,4.2875,27.7819,6.432,36.5837,1.2773,5.2876,3.0842,13.6408,4.9442,21.4363-14.7542,3.6705-31.9766,7.9368-36.8331,9.2454-8.118,2.1627-15.7817,5.2343-22.0729.7735-6.2578-4.4882-3.82-12.2046-2.293-17.1321,1.5407-4.9305,8.4178-11.1164,7.3568-24.5627-1.0913-13.4279-20.9953-18.0562-34.4933-15.5863-13.4708,2.4728-22.0624,12.966-22.2093,23.318-.1724,10.3473,5.5058,13.89,6.7394,22.3816,1.2332,8.5055-2.9346,11.4143-10.1157,12.82-7.21,1.383-21.82-2.2753-28.95-5.0522-3.5173-1.383-9.3076-3.69-14.7391-6.2055C-.0111,147.79.0005,77.9729.0111,34.6565A34.5853,34.5853,0,0,1,34.5279.0022C78.2076,0,148.86-.0022,157.6306.004c-3.8185,10.8021-10.0189,28.3612-11.6942,39.4212-2.2474,14.8281,2.1294,17.0621,10.3063,15.8145,9.0609-1.3939,9.6-10.5132,24.6154-9.7394C198.3984,46.4379,204.8713,63.9316,201.13,81.41Z"/></svg>