<svg id="Слой_1" data-name="Слой 1" xmlns="http://www.w3.org/2000/svg" viewBox="0 0 169.9055 206.6385"><defs><style>.cls-1{fill:none;opacity:0.5;}</style></defs><path class="cls-1" d="M135.3842,206.6373c-43.0411-.0014-112.3011-.0028-123.0944.0012-1.8752-7.7939-3.6459-16.1606-4.961-21.4453-2.14-8.7819-8.5811-29.6467-6.4229-36.585,2.146-6.94,7.9454-6.1721,12.2663-4.7739,4.2874,1.3786,13.021,5.5475,21.1329,4.9258,8.13-.6184,18.1487-3.9151,21.463-19.4528,3.7593-17.4879-2.7151-34.9738-20.2734-35.9086-15.0054-.7722-15.5366,8.3623-24.5956,9.7437-8.1832,1.2647-12.572-.9923-10.305-15.82C2.2922,76.26,8.4728,58.6967,12.29,47.8981c5.424,2.5153,11.2308,4.8225,14.757,6.2055,7.1312,2.7768,21.72,6.4352,28.9423,5.0522,7.1826-1.406,11.3383-4.3148,10.1125-12.82-1.232-8.4915-6.904-12.0344-6.7376-22.3817C59.5153,13.6019,68.0871,3.1086,81.5625.6359c13.5024-2.47,33.4219,2.1584,34.5054,15.5863,1.0653,13.4463-5.8114,19.6322-7.3611,24.5627-1.5194,4.9274-3.9682,12.6438,2.2883,17.132,6.2987,4.4609,13.9716,1.3892,22.0773-.7735,4.867-1.3086,22.0655-5.5748,36.8331-9.2453-.0187,8.8867-.0118,80.0959-.0056,124.0675A34.5856,34.5856,0,0,1,135.3842,206.6373Z"/></svg>