<svg id="Слой_1" data-name="Слой 1" xmlns="http://www.w3.org/2000/svg" viewBox="0 0 182.7272 206.0769"><defs><style>.cls-1{fill:none;}</style></defs><path class="cls-1" d="M180.2314,128.6632c-1.7149,6.359-5.5133,17.7322-10.3214,30.0738-8.009-3.0916-14.9266-5.5643-18.04-6.4536-11.9452-3.4987-34.286-6.75-37.3476-.5865-3.0694,6.1875,1.3861,16.673,3.8439,23.1614,2.4533,6.4732,2.597,20.9759-12.7306,28.0767-15.3218,7.11-35.9947,1.7281-39.365-11.86-3.3793-13.5829,1.0532-17.9192,3.8045-23.4788,2.7623-5.5721,5.2018-10.7959,3.3781-15.1259-1.8494-4.3348-9.0336-7.26-30.1907-2.0046-8.9081,2.2081-20.4008,5.1643-30.9823,8.2711-1.86-7.7955-3.6669-16.1488-4.9442-21.4363C5.1919,128.4988-1.2509,107.6552.9045,100.717c2.1429-6.9473,7.9649-6.18,12.2734-4.7936,4.289,1.383,12.9972,5.5674,21.13,4.9458,8.1209-.6232,18.1441-3.9124,21.472-19.456,3.7413-17.4788-2.7315-34.9726-20.2719-35.91-15.0158-.7738-15.5545,8.3455-24.6154,9.7393C2.7158,56.49-1.661,54.256.5865,39.428,2.2617,28.3679,8.4621,10.8088,12.2806.0068c13.7113-.0091,139.7546-.0091,157.6294,0,1.9173,8.7016,4.0875,17.5046,6.3076,28.8974,1.7649,8.8794,3.2269,24.996-6.1307,28.0829-9.3435,3.081-15.2064-3.3468-21.8956-4.14-12.2223-1.48-20.4114,4.7618-22.5528,19.74-2.1491,14.9983.9339,32.5773,13.0487,35.9633,13.1391,3.6979,19.9222-2.45,26.9731-4.929,7.3748-2.5851,13.9308-1.0181,15.933,4.6358C183.9405,114.9038,182.2243,121.386,180.2314,128.6632Z"/></svg>