<svg id="Слой_1" data-name="Слой 1" xmlns="http://www.w3.org/2000/svg" viewBox="0 0 202.5195 171.0389"><defs><style>.cls-1{fill:none;opacity:0.49;}</style></defs><path class="cls-1" d="M202.52,158.7342c-14.7676,3.6705-31.966,7.9368-36.8331,9.2454-8.1056,2.1627-15.7786,5.2343-22.0773.7735-6.2565-4.4882-3.8076-12.2046-2.2883-17.1321,1.55-4.9305,8.4265-11.1164,7.3612-24.5627-1.0836-13.4279-21.0031-18.0562-34.5054-15.5863-13.4755,2.4728-22.0473,12.966-22.1985,23.318-.1665,10.3473,5.5055,13.89,6.7375,22.3816,1.2259,8.5055-2.93,11.4143-10.1125,12.82-7.222,1.383-21.8111-2.2753-28.9422-5.0522-3.5263-1.383-9.3331-3.69-14.7571-6.2055C49.712,146.3926,53.51,135.0194,55.2253,128.66c1.9929-7.2772,3.7091-13.7594,1.3618-20.406-2.0022-5.6539-8.5581-7.2208-15.9329-4.6357-7.0509,2.4789-13.8341,8.6269-26.9732,4.929C1.5663,105.1616-1.5168,87.5826.6324,72.5843c2.1414-14.9783,10.33-21.2206,22.5527-19.74,6.6892.7935,12.5521,7.2212,21.8957,4.14,9.3575-3.0869,7.8955-19.2036,6.1307-28.0829-2.22-11.3928-4.39-20.1959-6.3077-28.8975C53.333-.0022,124.2063,0,167.9962.0022A34.5862,34.5862,0,0,1,202.5139,34.67C202.5077,78.0644,202.5009,148.033,202.52,158.7342Z"/></svg>