<svg xmlns="http://www.w3.org/2000/svg" viewBox="0 0 181.71 311.77"><defs><style>.cls-1{fill:none;stroke:#063;stroke-linecap:round;stroke-miterlimit:10;stroke-width:2.83px;}.cls-2{fill:#063;}</style></defs><g id="Слой_2" data-name="Слой 2"><g id="Layer_1" data-name="Layer 1"><path class="cls-1" d="M1.42,1.42C24.53,15.24,28.67,47,25.9,73.76s-3.87,58,6.21,82.93C42.69,182.88,65.75,196.3,94,195.45s54.73-17.42,70.94-40.54c10.51-15,15.74-38.42,1.24-49.59-14.82-11.43-36.7.5-47.81,15.57-15.78,21.42-22,48.66-22.4,75.26-.37,26.88,6.26,87.33,82.78,107"/><polygon class="cls-2" points="166.62 311.77 165.3 309.25 177.7 302.8 170.36 290.91 172.78 289.42 181.72 303.91 166.62 311.77"/></g></g></svg>