<?xml version="1.0" encoding="utf-8"?><svg viewBox="0 0 35 35" xmlns="http://www.w3.org/2000/svg" xmlns:xlink="http://www.w3.org/1999/xlink"><style>:root>svg{display:none}:root>svg:target{display:block}</style><svg viewBox="0 0 35 35" id="angle-down" xmlns="http://www.w3.org/2000/svg"><defs><style>.acls-1{isolation:isolate}.acls-2{fill:#a3da96;mix-blend-mode:multiply;opacity:.5}.acls-3{fill:none;stroke:#fff;stroke-linecap:round;stroke-miterlimit:10;stroke-width:.89px}</style></defs><g class="acls-1"><g id="aСлой_2" data-name="Слой 2"><g id="aLayer_1" data-name="Layer 1"><circle class="acls-2" cx="17.5" cy="17.5" r="17.5"/><path class="acls-3" d="M25 14.73l-7.56 7.56-7.68-7.68"/></g></g></g></svg><svg viewBox="0 0 8.75 16.12" id="angle-left" xmlns="http://www.w3.org/2000/svg"><defs><style>.bcls-1{fill:none;stroke:#fff;stroke-linecap:round;stroke-miterlimit:10;stroke-width:.89px}</style></defs><g id="bСлой_2" data-name="Слой 2"><path class="bcls-1" d="M8.18.44L.63 8l7.67 7.68" id="bLayer_1" data-name="Layer 1"/></g></svg><svg viewBox="0 0 31.78 30.37" id="arrow-left" xmlns="http://www.w3.org/2000/svg"><defs><style>.ccls-1{fill:none;stroke:#fff;stroke-linecap:round;stroke-miterlimit:10;stroke-width:2px}</style></defs><g id="cСлой_2" data-name="Слой 2"><g id="cLayer_1" data-name="Layer 1"><path class="ccls-1" d="M30.78 15.23H2.82M15.6 29.37L1.41 15.19 15.6 1"/></g></g></svg><svg viewBox="0 0 28 28" id="ok" xmlns="http://www.w3.org/2000/svg"><path d="M13.984 14.398c-3.296 0-6.036-2.737-6.036-5.976 0-3.35 2.74-6.089 6.037-6.089 3.409 0 6.035 2.737 6.035 6.09a6 6 0 01-6.016 5.976l-.02-.001zm0-8.545c-1.396 0-2.457 1.173-2.457 2.57 0 1.396 1.061 2.457 2.458 2.457 1.452 0 2.458-1.061 2.458-2.457.001-1.399-1.006-2.57-2.46-2.57zm2.403 13.517l3.41 3.296c.671.724.671 1.786 0 2.457-.726.724-1.844.724-2.403 0l-3.41-3.352-3.296 3.352c-.335.335-.783.502-1.287.502-.39 0-.838-.168-1.23-.502-.67-.67-.67-1.733 0-2.458l3.465-3.296a15.735 15.735 0 01-3.573-1.562c-.839-.447-1.006-1.563-.559-2.402.559-.838 1.564-1.06 2.46-.502a7.723 7.723 0 008.046 0c.895-.559 1.955-.336 2.458.502.504.839.279 1.954-.504 2.402-1.06.67-2.29 1.174-3.576 1.564h-.001z"/></svg><svg viewBox="0 0 28 28" id="vk" xmlns="http://www.w3.org/2000/svg"><g clip-path="url(#eclip0_51_12)"><path fill-rule="evenodd" clip-rule="evenodd" d="M27.358 6.94c.194-.638 0-1.107-.927-1.107h-3.063c-.779 0-1.138.405-1.333.852 0 0-1.558 3.729-3.764 6.15-.714.703-1.038.926-1.428.926-.195 0-.488-.223-.488-.861V6.94c0-.766-.214-1.107-.863-1.107h-4.816c-.486 0-.78.355-.78.692 0 .725 1.104.893 1.218 2.932v4.431c0 .972-.179 1.148-.569 1.148-1.038 0-3.564-3.746-5.063-8.032-.29-.835-.584-1.17-1.367-1.17H1.05c-.875 0-1.05.404-1.05.851 0 .796 1.038 4.748 4.836 9.976 2.531 3.57 6.096 5.506 9.342 5.506 1.948 0 2.188-.43 2.188-1.17v-2.699c0-.86.184-1.031.802-1.031.454 0 1.233.224 3.05 1.945 2.077 2.04 2.419 2.955 3.588 2.955h3.062c.875 0 1.314-.43 1.062-1.279-.278-.845-1.27-2.07-2.584-3.526-.714-.828-1.785-1.72-2.11-2.167-.454-.573-.325-.829 0-1.338 0 0 3.733-5.164 4.121-6.918h.001z"/></g><defs><clipPath id="eclip0_51_12"><path d="M0 0h28v28H0z"/></clipPath></defs></svg></svg>