<svg xmlns="http://www.w3.org/2000/svg" viewBox="0 0 101.54 122.42">
    <defs>
        <style>.cls-1{fill:#ffb631;stroke:#ffe9c6;stroke-miterlimit:10;stroke-width:0.75px;}</style>
    </defs>
    <g id="Слой_2" data-name="Слой 2">
        <g id="Layer_1" data-name="Layer 1">
            <path class="cls-1"
                  d="M99.69,104.34c-1,3.74-3.26,10.43-6.11,17.7H20.79A20.4,20.4,0,0,1,.38,101.64c0-25.18,0-65.58,0-73.06C3.6,30.06,7,31.42,9.1,32.23c4.21,1.64,12.85,3.79,17.12,3s6.71-2.55,6-7.55-4.09-7.09-4-13.18S33.38,2.21,41.35.75,61.1,2,61.74,9.93,58.3,21.49,57.39,24.39s-2.34,7.44,1.36,10.09,8.25.81,13-.46c2.87-.77,13-3.28,21.78-5.44,1.12,5.13,2.41,10.3,3.74,17,1,5.23,1.9,14.7-3.63,16.53s-9-2-13-2.44c-7.22-.86-12,2.81-13.32,11.62S68,90.49,75.12,92.49c7.77,2.17,11.77-1.45,15.94-2.9,4.36-1.53,8.25-.6,9.43,2.73C101.88,96.23,100.86,100,99.69,104.34Z"/>
        </g>
    </g>
</svg>
