<svg xmlns="http://www.w3.org/2000/svg" viewBox="0 0 279.61 186.93"><defs><style>.cls-1{fill:#8ab61f;}</style></defs><g id="Слой_2" data-name="Слой 2"><g id="Layer_1" data-name="Layer 1"><path class="cls-1" d="M118.93,47.93C117,57.09,111,59,106.23,59.39s-10-2.1-12.49-2.91-6-1.27-7.26,2.82S89,75.66,90.28,80.84c.76,3.11,1.83,8,2.93,12.62-8.73,2.16-18.91,4.68-21.78,5.45-4.8,1.27-9.33,3.08-13.05.45S56.12,92.18,57,89.27s5-6.54,4.35-14.46S49,64.18,41,65.63s-13,7.64-13.13,13.73,3.26,8.18,4,13.18-1.74,6.72-6,7.55-12.91-1.34-17.12-3C6.65,96.3,3.22,94.94,0,93.46c0-6.44,0-47.55,0-73A20.4,20.4,0,0,1,20.42,0H93.21C91,6.36,87.28,16.7,86.29,23.21c-1.33,8.74,1.26,10,6.1,9.32,5.36-.82,5.67-6.19,14.55-5.74C117.31,27.34,121.14,37.64,118.93,47.93Z"/><path class="cls-1" d="M192.52,75.76c-1,3.74-3.26,10.44-6.1,17.7-4.74-1.82-8.83-3.27-10.67-3.8-7.06-2.06-20.27-4-22.09-.34s.82,9.81,2.28,13.63,1.53,12.35-7.53,16.54-21.28,1-23.28-7,.63-10.55,2.25-13.82,3.08-6.36,2-8.91S124,85.5,111.53,88.59c-5.27,1.3-12.06,3-18.32,4.87C92.11,88.87,91,84,90.28,80.84,89,75.66,85.21,63.39,86.48,59.3s4.71-3.64,7.26-2.82,7.68,3.28,12.49,2.91,10.73-2.3,12.7-11.46c2.21-10.29-1.62-20.59-12-21.14-8.88-.45-9.19,4.92-14.55,5.74-4.84.73-7.43-.58-6.1-9.32C87.28,16.7,91,6.36,93.21,0h93.21c1.13,5.13,2.41,10.31,3.73,17,1,5.23,1.9,14.72-3.63,16.53s-9-2-13-2.43c-7.22-.88-12.07,2.8-13.33,11.62s.55,19.18,7.71,21.17c7.77,2.18,11.78-1.44,16-2.9,4.36-1.52,8.24-.6,9.42,2.73C194.71,67.65,193.7,71.47,192.52,75.76Z"/><path class="cls-1" d="M279.61,93.46c-8.73,2.16-18.9,4.68-21.77,5.45-4.8,1.27-9.33,3.08-13.06.45s-2.25-7.18-1.35-10.09,5-6.54,4.35-14.46-12.42-10.63-20.4-9.18-13,7.64-13.13,13.73,3.26,8.18,4,13.18-1.73,6.72-6,7.55-12.9-1.34-17.12-3c-2.08-.82-5.52-2.18-8.72-3.66,2.84-7.26,5.08-14,6.1-17.7,1.18-4.29,2.19-8.11.8-12-1.18-3.33-5.06-4.25-9.42-2.73-4.17,1.46-8.18,5.08-16,2.9-7.16-2-9-12.34-7.71-21.17s6.11-12.5,13.33-11.62c4,.46,7.43,4.25,13,2.43s4.67-11.3,3.63-16.53c-1.32-6.71-2.6-11.89-3.73-17H259.2a20.41,20.41,0,0,1,20.41,20.41C279.61,46,279.6,87.16,279.61,93.46Z"/><path class="cls-1" d="M212.12,141.39c-2,9.15-7.88,11.09-12.69,11.46s-10-2.09-12.49-2.9-6-1.28-7.26,2.81,2.54,16.37,3.8,21.54c.78,3.11,1.83,8,2.94,12.63-9.65,0-85.78,0-93.21,0,2.85-7.27,5.09-14,6.11-17.71,1.17-4.29,2.19-8.11.8-12-1.18-3.33-5.07-4.25-9.43-2.73-4.17,1.46-8.17,5.08-15.94,2.91-7.16-2-9-12.35-7.71-21.18s6.1-12.49,13.32-11.62c4,.46,7.43,4.26,13,2.44S98,115.72,97,110.48c-1.33-6.71-2.62-11.89-3.74-17,6.26-1.83,13.05-3.57,18.32-4.87,12.51-3.09,16.76-1.37,17.85,1.18s-.36,5.63-2,8.91-4.25,5.82-2.25,13.82,14.22,11.17,23.28,7,9-12.72,7.53-16.54-4.09-10-2.28-13.63,15-1.72,22.09.34c1.84.53,5.93,2,10.67,3.8-2.26,6.36-5.92,16.7-6.92,23.21-1.34,8.73,1.25,10.06,6.09,9.32,5.36-.81,5.67-6.19,14.55-5.74C210.52,120.8,214.35,131.1,212.12,141.39Z"/><path class="cls-1" d="M99.32,169.22c-1,3.75-3.26,10.44-6.11,17.71-4.23,0-46.66,0-72.79,0A20.41,20.41,0,0,1,0,166.52C0,141.35,0,101,0,93.46c3.21,1.48,6.64,2.84,8.72,3.66,4.21,1.63,12.85,3.78,17.12,3s6.71-2.54,6-7.55-4.09-7.08-4-13.18S33,67.09,41,65.63s19.76,1.28,20.4,9.18S57.93,86.37,57,89.27s-2.34,7.45,1.36,10.09,8.25.82,13.05-.45c2.87-.77,13-3.29,21.78-5.45,1.12,5.13,2.41,10.31,3.74,17,1,5.24,1.9,14.71-3.63,16.54s-9-2-13-2.44c-7.22-.87-12,2.81-13.32,11.62s.55,19.18,7.71,21.18c7.77,2.17,11.77-1.45,15.94-2.91,4.36-1.52,8.25-.6,9.43,2.73C101.51,161.11,100.49,164.93,99.32,169.22Z"/><path class="cls-1" d="M259.2,186.93c-25.45,0-66.4,0-72.78,0-1.11-4.59-2.16-9.52-2.94-12.63-1.26-5.17-5.07-17.46-3.8-21.54s4.7-3.64,7.26-2.81,7.7,3.26,12.49,2.9,10.73-2.31,12.69-11.46c2.23-10.29-1.6-20.59-12-21.14-8.88-.45-9.19,4.93-14.55,5.74-4.84.74-7.43-.59-6.09-9.32,1-6.51,4.66-16.85,6.92-23.21,3.2,1.48,6.64,2.84,8.72,3.66,4.22,1.63,12.84,3.78,17.12,3s6.7-2.54,6-7.55-4.08-7.08-4-13.18,5.16-12.27,13.13-13.73,19.76,1.28,20.4,9.18-3.44,11.56-4.35,14.46-2.35,7.45,1.35,10.09,8.26.82,13.06-.45c2.87-.77,13-3.29,21.77-5.45,0,5.23,0,47.16,0,73.05A20.41,20.41,0,0,1,259.2,186.93Z"/></g></g></svg>